<?xml version="1.0" encoding="UTF-8"?>
<svg width="428px" height="358px" viewBox="0 0 428 258" version="1.1" xmlns="http://www.w3.org/2000/svg" xmlns:xlink="http://www.w3.org/1999/xlink">
    <!-- Generator: Sketch 56.3 (81716) - https://sketch.com -->
    <title>losos&gt;tech</title>
    <desc>Created with Sketch.</desc>
    <g id="Page-1" stroke="#ffffff" stroke-width="1" fill="none" fill-rule="evenodd">
        <g id="losos&gt;tech" fill-rule="nonzero">
            <g id="XMLID_1_" transform="translate(122.000000, 0.000000)">
                <g id="Group">
                    <path d="M179.8,104.3 C180.1,112.5 179.7,120.7 178.8,128.9 C176.8,146.8 172.3,164 165.3,180.6 C160,193 153.4,204.7 145.6,215.7 C142.6,219.9 139.7,224.3 136.4,228.3 C133.9,231.4 131.2,234.3 127.9,236.6 C126.2,237.8 124.3,238.8 122.1,239.1 C119.6,239.4 117.6,238.5 115.9,236.8 C113.7,234.6 113.3,231.9 113.6,228.9 C113.9,226.2 114.5,223.4 114.8,220.7 C115.3,215.3 115.8,210 116.1,204.6 C116.4,199.9 116.3,195.1 116,190.4 C115.5,183.8 114.6,177.2 112,171 C108.6,162.8 102.4,158 93.8,156.6 C82.3,154.8 71.5,161.5 67.9,172.3 C66.5,176.4 65.7,180.6 65.1,184.8 C64.3,190.4 64.1,196.1 64.3,201.7 C64.5,206.7 64.9,211.7 65.3,216.8 C65.7,220.7 66.4,224.6 66.8,228.5 C67.1,230.6 67.1,232.6 66.1,234.5 C64.7,237 62.8,238.8 59.7,239 C57.9,239.1 56.3,238.5 54.7,237.7 C51.9,236.2 49.6,234.1 47.4,231.9 C43.2,227.5 39.7,222.5 36.2,217.5 C32.2,211.8 28.3,206.1 24.9,200 C17.6,187.2 11.9,173.8 7.8,159.7 C5.4,151.4 3.6,143 2.4,134.5 C1.5,128 0.9,121.5 0.7,115 C0.7,114.8 0.6,114.7 0.6,114.5 C0.6,111.2 0.6,107.9 0.6,104.6 C0.6,104.5 0.7,104.3 0.7,104.2 C0.9,97.3 1.5,90.5 2.6,83.7 C3.9,75.4 5.7,67.3 8.4,59.3 C12.9,46 20,34.5 30.2,24.8 C39.8,15.6 51,8.8 63.6,4.5 C71.2,1.9 79.1,0.5 87.1,0.2 C87.5,0.2 87.8,0.1 88.2,0.1 C89.5,0.1 90.8,0.1 92.1,0.1 C92.5,0.1 92.8,0.2 93.2,0.2 C101.4,0.5 109.3,2 117.1,4.7 C129.5,9 140.5,15.6 150.1,24.7 C160.8,34.9 168.2,47.1 172.6,61.1 C175.1,69 176.8,77 178,85.2 C179,91.7 179.6,98 179.8,104.3 Z M176.2,117.6 C176.3,115.6 176.4,113.6 176.3,111.6 C176.2,110.2 175.3,109.8 174,110.4 C173.8,110.5 173.7,110.6 173.5,110.6 C171.6,111.6 169.7,112.7 167.8,113.7 C167.6,113.8 167.4,113.9 167,114.2 C167.3,114.4 167.5,114.5 167.7,114.6 C168.1,114.9 168.6,115.1 169,115.4 C170.6,116.2 172.3,117 174,117.7 C174.4,117.9 174.9,118 175.3,118.1 C175.7,118.2 176.2,118.1 176.2,117.6 Z M174.5,106.5 C175.7,105.8 176.2,104.8 176.2,103.5 C176.2,102.8 176.2,102.1 176.2,101.5 C176.2,101.5 176.2,101.5 176.1,101.5 C176.1,101.3 176.1,101.1 176.1,100.9 C175.6,95.8 175.2,90.6 174.7,85.5 C174.7,85.1 174.6,84.6 174.5,84.2 C174.3,83.2 173.8,83 172.9,83.4 C172.7,83.5 172.6,83.5 172.5,83.6 C171.1,84.5 169.6,85.4 168.2,86.4 C166.3,87.7 164.5,89.1 162.6,90.3 C150.5,97.6 137.5,102.9 123.7,106.2 C119.7,107.2 115.7,107.9 111.6,108.6 C110.2,108.9 108.8,108.8 107.4,109.2 C105.1,109.8 105.6,109.3 105.3,111.5 C105,113.5 104.4,115.3 103.2,116.9 C102.4,118 102.7,118.6 104,118.8 C104.1,118.8 104.1,118.8 104.2,118.8 C106.9,119.1 109.5,119.4 112.2,119.8 C120.2,121.1 128,123 135.6,125.7 C148.4,130.1 160.4,136.1 171.4,143.9 C173,145 173.7,144.7 173.9,142.8 C174.1,141.2 174.3,139.6 174.6,138 C175.4,133.4 175.9,128.8 176,124.2 C176,123.3 175.7,122.7 174.9,122.3 C173.2,121.3 171.5,120.3 169.8,119.4 C166.5,117.7 163.2,116.1 159.7,115.1 C159.4,115 159.1,114.7 158.9,114.5 C159.1,114.3 159.4,114 159.6,113.8 C159.7,113.7 159.8,113.7 159.9,113.7 C161.9,112.8 163.9,111.8 166,110.9 C168.9,109.5 171.7,108.1 174.5,106.5 Z M172.6,79.8 C173.5,79 173.8,78 173.6,76.8 C172.8,71.7 171.5,66.7 169.8,61.8 C168.4,57.7 166.5,53.8 164.7,49.9 C164.3,49.1 163.9,48.3 163.3,47.6 C162.6,46.7 162.1,46.7 161.2,47.5 C157,51.3 152.5,54.8 147.8,58 C140,63.2 131.5,67.2 122.6,70.1 C115.6,72.4 108.5,73.9 101.1,74.6 C98.7,74.8 96.2,74.9 93.8,75.1 C92.6,75.2 92.2,75.7 92.2,76.9 C92.2,79.5 92.2,82.1 92.2,84.7 C92.2,87.4 92.2,90 92.2,92.7 C92.2,93.9 92.4,94 93.5,94.4 C98,95.9 101.5,98.5 103.6,102.9 C104,103.7 104.5,104.5 104.9,105.3 C105.2,105.8 105.6,106 106.1,106 C107.1,106 108.2,106.1 109.2,105.9 C113,105.2 116.7,104.5 120.4,103.7 C131.7,101.3 142.4,97.3 152.7,91.9 C159,88.6 164.9,84.9 170.9,81 C171.5,80.7 172,80.2 172.6,79.8 Z M172.3,151.8 C172.6,149.9 172.5,148.1 170.6,146.8 C169.1,145.8 167.7,144.8 166.3,143.9 C161.2,140.6 155.8,137.9 150.3,135.3 C138.4,129.6 126,125.6 113,123.2 C107.9,122.3 102.8,121.6 97.6,122.4 C96.3,122.6 94.9,123 93.6,123.4 C92.8,123.6 92.4,124.3 92.3,125.1 C92.2,125.5 92.2,126 92.2,126.5 C92.2,127.5 92.3,128.5 92.3,129.4 C92.3,132.8 92.3,136.2 92.3,139.6 C92.3,139.6 92.3,139.6 92.3,139.6 C92.3,142.3 92.3,144.9 92.3,147.6 C92.3,149 92.3,150.4 92.3,151.7 C92.3,152.6 92.6,152.9 93.5,153.1 C94,153.2 94.6,153.3 95.1,153.3 C99.3,153.8 103.6,154.1 107.8,154.7 C119.1,156.5 129.7,160.2 139.8,165.6 C147.1,169.5 154,174.1 160.1,179.8 C160.3,180 160.5,180.2 160.8,180.3 C161.5,180.7 162.1,180.6 162.6,179.9 C162.9,179.5 163.1,179.1 163.2,178.7 C163.6,177.5 164,176.4 164.5,175.2 C166.2,170.7 168,166.2 169.6,161.6 C170.7,158.5 171.8,155.2 172.3,151.8 Z M159.9,44.2 C160.7,43.4 160.6,43 160,42.1 C155,34.5 149,27.7 141.9,22.1 C140.1,20.7 138.4,19.2 136.5,17.9 C134.4,16.4 133.3,16.5 131.4,18.3 C128.9,20.7 126.1,22.7 123.1,24.4 C115,29.1 106.4,32.4 96.9,32.9 C95.7,33 94.5,33.3 93.3,33.6 C92.6,33.8 92.2,34.2 92.2,35 C92.2,37.8 92.2,40.5 92.2,43.3 C92.2,51.9 92.2,60.5 92.2,69.1 C92.2,69.9 92.3,70.6 92.3,71.5 C93.7,71.6 95,71.7 96.3,71.8 C101.1,71.9 105.8,71.2 110.4,70.1 C118.8,68.3 126.9,65.6 134.6,61.8 C142.4,58 149.6,53 156.4,47.6 C157.7,46.6 158.8,45.4 159.9,44.2 Z M159.6,186.5 C160.2,185 160.1,184.2 158.9,183 C157.5,181.8 156.1,180.7 154.7,179.5 C147,173.1 138.6,168.1 129.4,164.2 C124.2,162 118.8,160.4 113.3,159 C111.3,158.5 109.3,158 107.2,158 C107.3,158.1 107.3,158.2 107.4,158.3 C108,159 108.6,159.8 109.2,160.5 C112.6,164.4 115.1,168.8 116.7,173.7 C118.1,178 119,182.3 119.4,186.8 C119.7,190 120,193.3 119.8,196.6 C119.7,197.5 119.7,198.4 119.7,199.4 C119.7,201.1 120.4,202.5 121.9,203.4 C122.3,203.7 122.7,204 123.2,204.2 C126,205.8 128.6,207.7 131,209.8 C133.3,211.8 135.6,213.7 137.4,216.1 C137.7,216.5 138.1,216.8 138.4,217.1 C139,217.6 139.5,217.6 140,217 C140.3,216.7 140.6,216.4 140.9,216 C141.8,214.7 142.6,213.3 143.5,212 C145.4,209.2 147.4,206.5 149.2,203.6 C152.4,198.4 155.6,193.2 158.8,187.9 C159.1,187.6 159.4,187 159.6,186.5 Z M135.6,222.9 C136.7,221.5 136.8,220.3 135.8,218.8 C135.4,218.2 134.9,217.6 134.4,217.1 C131.3,213.7 127.6,210.9 123.8,208.5 C122.6,207.7 121.4,207 120.2,206.2 C120.1,206.2 120.1,206.3 120,206.3 C119.8,207.7 119.6,209 119.5,210.4 C119.3,212.6 119.3,214.8 119.1,217 C118.6,221.3 118,225.5 117.4,229.8 C117,233 119,235.7 122,236 C123.7,236.2 125.2,235.4 126.4,234.2 C127.6,233 128.6,231.8 129.6,230.5 C131.5,228 133.6,225.4 135.6,222.9 Z M129.1,16.6 C130.3,15.3 130.3,14.3 128.8,13.3 C128,12.7 127.2,12.2 126.3,11.8 C123.9,10.8 121.4,9.9 118.9,8.9 C115.6,7.6 112.3,6.4 108.9,5.7 C103.9,4.7 98.9,4.3 93.9,4 C93,3.9 92.5,4.2 92.4,5.2 C92.3,6 92.3,6.7 92.3,7.5 C92.3,10.8 92.3,14.2 92.3,17.5 C92.3,17.5 92.2,17.5 92.2,17.5 C92.2,21.1 92.2,24.7 92.2,28.2 C92.2,30.2 92.3,30.3 94.3,30.2 C99.9,29.9 105.3,28.6 110.6,26.8 C116.7,24.7 122,21.3 127.5,18 C128.2,17.6 128.7,17.1 129.1,16.6 Z M100.8,114.2 C102.9,110.4 102.6,106.5 100.2,102.9 C97.4,98.6 93.4,96.5 88.2,97.3 C85.7,97.7 83.6,99.1 81.9,100.9 C79.3,103.7 77.9,107 78.6,110.9 C79.6,116.5 84.5,120.4 91.6,120.4 C94.9,120.4 98.5,118.3 100.8,114.2 Z M88.5,126.5 C88.5,124.1 88.1,123.4 85.8,122.8 C83.3,122.1 80.7,122 78.1,122 C77.7,122 77.3,122 76.9,122 C72.1,122.2 67.4,123.1 62.8,124.1 C46.2,127.6 30.7,134.2 16.1,142.8 C13.9,144.1 11.8,145.6 9.7,147.1 C8.7,147.8 8.2,148.8 8.3,150.1 C8.4,151.1 8.4,152.1 8.6,153.1 C9.5,156.3 10.3,159.5 11.4,162.7 C13.3,168.1 15.4,173.4 17.4,178.8 C17.5,179.1 17.6,179.3 17.8,179.6 C18.5,180.9 19.2,181.1 20.3,180.1 C21,179.5 21.5,178.9 22.2,178.3 C33,169.2 45.1,162.5 58.5,158.2 C64.6,156.3 70.7,154.9 77,154.1 C80.1,153.7 83.3,153.5 86.4,153.2 C87.9,153.1 88.3,152.6 88.3,151.1 C88.3,149.6 88.3,148.2 88.3,146.7 C88.4,140 88.4,133.3 88.5,126.5 Z M88.4,92.4 C88.4,89.8 88.4,87.3 88.4,84.7 C88.4,82 88.4,79.4 88.4,76.7 C88.4,75.6 87.9,75.1 86.8,75 C86,74.9 85.2,75 84.4,74.9 C79,74.6 73.7,73.9 68.4,72.8 C54.6,69.8 41.8,64.4 30.3,56.2 C26.4,53.4 22.7,50.4 19.2,47.2 C18.5,46.6 18.1,46.6 17.5,47.2 C17.1,47.6 16.8,48.1 16.5,48.6 C16,49.7 15.5,50.8 15,51.8 C11.2,59.5 8.6,67.5 7.2,76 C6.9,77.8 7.3,79.3 8.8,80.3 C10,81.1 11.1,81.9 12.4,82.6 C16.8,85.3 21.1,88 25.6,90.5 C35.5,96 45.8,100.2 56.8,102.8 C61.3,103.9 65.9,104.7 70.4,105.6 C71.7,105.9 73,106.1 74.4,105.9 C75,105.8 75.5,105.6 75.8,105 C76.2,104.1 76.7,103.3 77.2,102.5 C79.3,98.3 82.8,95.7 87.1,94.2 C88.3,93.8 88.4,93.7 88.4,92.4 Z M88.4,59.8 C88.4,51.7 88.4,43.6 88.4,35.5 C88.4,34.2 88.2,33.8 86.9,33.5 C85.7,33.2 84.4,33 83.2,32.9 C81.9,32.8 80.5,32.8 79.2,32.6 C72.7,31.5 66.4,29.4 60.6,26.2 C56.5,24 52.5,21.5 49.1,18.2 C48.7,17.8 48.3,17.5 47.8,17.3 C47.1,16.8 46.3,16.8 45.5,17.2 C44.7,17.6 43.8,18 43.1,18.6 C39.4,21.5 35.6,24.5 32.2,27.9 C27.7,32.3 23.9,37.2 20.4,42.4 C20,43 20,43.5 20.4,44 C21,44.8 21.6,45.6 22.4,46.2 C24.5,47.9 26.6,49.5 28.7,51.1 C44,62.6 61,69.6 80.1,71.6 C82.8,71.9 85.5,71.8 88.2,71.4 C88.2,70.6 88.3,69.8 88.3,69 C88.4,65.9 88.4,62.8 88.4,59.8 Z M88.4,28.7 C88.4,24.9 88.4,21.1 88.4,17.3 C88.4,17.3 88.4,17.3 88.3,17.3 C88.3,13.8 88.3,10.2 88.3,6.7 C88.3,6.1 88.3,5.5 88.2,4.9 C88.1,4.1 87.7,3.8 86.9,3.9 C85,4 83.2,4.1 81.3,4.3 C77.6,4.6 73.9,5.1 70.3,6 C65.2,7.3 60.4,9.4 55.6,11.2 C54.3,11.7 53,12.5 51.8,13.3 C50.4,14.2 50.4,15.2 51.5,16.4 C52.1,17 52.8,17.6 53.5,18.1 C54.8,18.9 56.2,19.6 57.5,20.4 C63.3,24.1 69.6,26.8 76.3,28.5 C79.8,29.4 83.4,29.9 87.1,30 C88.1,30.1 88.4,29.8 88.4,28.7 Z M77.8,118.2 C78,117.9 77.6,117.3 77.4,116.9 C77,116.1 76.4,115.3 76.1,114.4 C75.7,113 75.4,111.6 75.1,110.2 C75,110 74.8,109.7 74.6,109.6 C74,109.4 73.3,109.2 72.6,109.1 C71.1,108.9 69.5,108.8 68,108.6 C59.7,107.2 51.5,105.2 43.5,102.3 C32,98.2 21,93.1 11.2,85.7 C10.1,84.8 8.8,84.2 7.5,83.5 C6.7,83.1 6.2,83.4 5.9,84.3 C5.8,84.6 5.8,84.9 5.7,85.3 C5.3,89.4 4.9,93.5 4.5,97.6 C4.3,99.6 4.3,101.7 4.2,103.8 C4.2,105 4.7,106 5.8,106.6 C7.7,107.6 9.5,108.8 11.5,109.7 C14.5,111.1 17.5,112.4 20.5,113.8 C20.8,114 21.1,114.3 21.4,114.6 C21.1,114.8 20.8,115.1 20.5,115.2 C18,116.2 15.5,117.1 13.1,118.2 C10.5,119.4 8,120.9 5.4,122.3 C4.6,122.7 4.3,123.4 4.4,124.2 C4.4,124.7 4.4,125.2 4.4,125.7 C4.4,125.7 4.3,125.7 4.3,125.7 C4.7,129.2 5.1,132.7 5.5,136.2 C5.8,138.6 6.2,141 6.6,143.3 C6.8,144.6 7.5,144.9 8.6,144.1 C9.5,143.5 10.3,142.9 11.1,142.3 C22.3,134.8 34.3,129 47,124.9 C54.6,122.4 62.3,120.6 70.2,119.5 C72.2,119.2 74.2,119 76.2,118.8 C77,118.7 77.6,118.5 77.8,118.2 Z M73.4,158.1 C73.4,158.1 73.3,158 73.3,158 C72.6,158.1 71.9,158 71.3,158.2 C68.7,158.8 66.1,159.4 63.5,160.1 C53,162.9 43.2,167.3 34.2,173.4 C30.7,175.8 27.3,178.5 24,181.1 C23.1,181.8 22.2,182.7 21.3,183.5 C20.6,184.1 20.5,185 20.8,185.8 C20.9,186.2 21,186.6 21.3,186.9 C22.1,188.4 23,189.8 23.9,191.2 C26.6,195.6 29.2,200.1 32,204.5 C34.5,208.4 37.2,212.3 39.8,216.1 C41,217.8 41.8,217.8 43.1,216.2 C43.7,215.5 44.2,214.7 44.9,214.1 C46.9,212.3 48.9,210.5 50.9,208.7 C53.1,206.8 55.4,205.2 57.9,203.8 C60.2,202.5 61.2,200.6 61,198 C60.9,196.8 60.8,195.6 60.8,194.4 C60.9,189.8 61.3,185.3 62.1,180.7 C63.5,172.9 66.4,165.8 71.8,159.9 C72.4,159.5 72.9,158.8 73.4,158.1 Z M63.3,232 C63.5,230.9 63.4,229.8 63.2,228.7 C62.3,223 61.5,217.3 61.3,211.5 C61.2,209.8 60.9,208 60.7,206.2 C60.3,206.4 60.1,206.5 59.9,206.6 C56.5,208.7 53,210.8 50.1,213.6 C48.3,215.2 46.6,216.9 45.1,218.7 C43.8,220.2 43.9,221.6 45.2,223.1 C47.7,226.2 50.2,229.4 52.7,232.5 C53.7,233.7 54.7,234.8 56.1,235.5 C59.4,237.2 62.9,234.7 63.3,232 Z M13,114.6 C13.5,114.3 13.5,114.1 13,113.8 C11.6,113 10.2,112.2 8.7,111.5 C8,111.1 7.2,110.7 6.5,110.3 C5.4,109.8 4.6,110.2 4.4,111.4 C4.3,112.2 4.3,113 4.2,113.8 C4.3,115 4.4,116.2 4.5,117.3 C4.6,117.9 4.8,118.2 5.4,118 C6,117.9 6.5,117.7 7.1,117.4 C8.1,116.9 9.1,116.5 10.2,116 C11.1,115.6 12,115.2 13,114.6 Z" id="Shape" fill="#000000"></path>
                    <path d="M176.3,111.6 C176.4,113.6 176.2,115.6 176.2,117.6 C176.2,118.1 175.7,118.2 175.3,118.1 C174.9,118 174.4,117.9 174,117.7 C172.3,117 170.7,116.2 169,115.4 C168.5,115.2 168.1,114.9 167.7,114.6 C167.5,114.5 167.3,114.3 167,114.2 C167.4,113.9 167.6,113.8 167.8,113.7 C169.7,112.7 171.6,111.6 173.5,110.6 C173.7,110.5 173.8,110.4 174,110.4 C175.3,109.8 176.3,110.3 176.3,111.6 Z" id="Path" fill="#D66986"></path>
                    <path d="M176.2,103.5 C176.2,104.8 175.7,105.8 174.5,106.5 C171.8,108.2 169,109.6 166.1,110.8 C164,111.7 162,112.7 160,113.6 C159.9,113.6 159.8,113.7 159.7,113.7 C159.4,113.9 159.2,114.2 159,114.4 C159.3,114.6 159.5,114.9 159.8,115 C163.3,116.1 166.6,117.7 169.9,119.3 C171.6,120.2 173.3,121.2 175,122.2 C175.8,122.6 176.1,123.3 176.1,124.1 C176.1,128.8 175.5,133.4 174.7,137.9 C174.4,139.5 174.2,141.1 174,142.7 C173.8,144.6 173,144.9 171.5,143.8 C160.5,136 148.5,130 135.7,125.6 C128.1,123 120.3,121 112.3,119.7 C109.6,119.3 107,119 104.3,118.7 C104.2,118.7 104.2,118.7 104.1,118.7 C102.7,118.5 102.5,118 103.3,116.8 C104.5,115.2 105.1,113.4 105.4,111.4 C105.8,109.1 105.3,109.6 107.5,109.1 C108.9,108.8 110.3,108.8 111.7,108.5 C115.7,107.7 119.8,107 123.8,106.1 C137.6,102.8 150.5,97.5 162.7,90.2 C164.6,89 166.4,87.6 168.3,86.3 C169.7,85.3 171.2,84.4 172.6,83.5 C172.7,83.4 172.9,83.4 173,83.3 C173.9,82.9 174.4,83.2 174.6,84.1 C174.7,84.5 174.8,84.9 174.8,85.4 C175.3,90.5 175.7,95.7 176.2,100.8 C176.2,101 176.2,101.2 176.2,101.4 C176.2,101.4 176.2,101.4 176.3,101.4 C176.2,102.1 176.1,102.8 176.2,103.5 Z" id="Path" fill="#D66986"></path>
                    <path d="M173.6,76.7 C173.8,77.9 173.4,78.9 172.6,79.7 C172.1,80.2 171.5,80.6 171,81 C165.1,84.8 159.1,88.6 152.8,91.9 C142.6,97.2 131.9,101.3 120.5,103.7 C116.8,104.5 113,105.2 109.3,105.9 C108.3,106.1 107.3,106 106.2,106 C105.7,106 105.3,105.7 105,105.3 C104.6,104.5 104.1,103.7 103.7,102.9 C101.6,98.5 98.1,95.9 93.6,94.4 C92.5,94 92.3,93.9 92.3,92.7 C92.3,90 92.3,87.4 92.3,84.7 C92.3,82.1 92.3,79.5 92.3,76.9 C92.3,75.7 92.8,75.2 93.9,75.1 C96.3,74.9 98.8,74.9 101.2,74.6 C108.5,73.9 115.7,72.3 122.7,70.1 C131.7,67.2 140.1,63.2 147.9,58 C152.6,54.8 157.1,51.3 161.3,47.5 C162.1,46.7 162.7,46.7 163.4,47.6 C163.9,48.3 164.4,49.1 164.8,49.9 C166.6,53.8 168.5,57.7 169.9,61.8 C171.5,66.6 172.8,71.6 173.6,76.7 Z" id="Path" fill="#D66986"></path>
                    <path d="M170.6,146.8 C172.5,148 172.5,149.8 172.3,151.8 C171.8,155.2 170.7,158.5 169.6,161.8 C168,166.4 166.2,170.9 164.5,175.4 C164.1,176.6 163.7,177.7 163.2,178.9 C163,179.3 162.8,179.7 162.6,180.1 C162.1,180.8 161.5,180.9 160.8,180.5 C160.6,180.4 160.3,180.2 160.1,180 C154,174.3 147.1,169.7 139.8,165.8 C129.7,160.4 119.1,156.7 107.8,154.9 C103.6,154.2 99.4,153.9 95.1,153.5 C94.6,153.4 94,153.4 93.5,153.3 C92.7,153.1 92.3,152.8 92.3,151.9 C92.3,150.5 92.3,149.2 92.3,147.8 C92.3,145.1 92.3,142.5 92.3,139.8 C92.3,139.8 92.3,139.8 92.3,139.8 C92.3,136.4 92.3,133 92.3,129.6 C92.3,128.6 92.2,127.6 92.2,126.7 C92.2,126.2 92.2,125.8 92.3,125.3 C92.4,124.5 92.8,123.8 93.6,123.6 C94.9,123.2 96.2,122.8 97.6,122.6 C102.8,121.8 107.9,122.5 113,123.4 C126,125.7 138.4,129.8 150.3,135.5 C155.8,138.1 161.1,140.9 166.3,144.1 C167.7,144.8 169.1,145.8 170.6,146.8 Z" id="Path" fill="#D66986"></path>
                    <path d="M160,42.1 C160.6,43 160.7,43.3 159.9,44.2 C158.8,45.4 157.7,46.6 156.4,47.6 C149.6,53 142.4,57.9 134.6,61.8 C126.9,65.6 118.8,68.3 110.4,70.1 C105.8,71.1 101.1,71.9 96.3,71.8 C95,71.8 93.6,71.6 92.3,71.5 C92.3,70.6 92.2,69.9 92.2,69.1 C92.2,60.5 92.2,51.9 92.2,43.3 C92.2,40.5 92.2,37.8 92.2,35 C92.2,34.2 92.6,33.7 93.3,33.6 C94.5,33.3 95.7,33 96.9,32.9 C106.4,32.5 115,29.2 123.1,24.4 C126.1,22.7 128.9,20.7 131.4,18.3 C133.3,16.5 134.3,16.4 136.5,17.9 C138.4,19.2 140.1,20.7 141.9,22.1 C149,27.7 155,34.5 160,42.1 Z" id="Path" fill="#D66986"></path>
                    <path d="M158.9,183 C160.1,184.1 160.3,184.9 159.6,186.5 C159.4,187 159.1,187.6 158.8,188.1 C155.6,193.3 152.5,198.6 149.2,203.8 C147.4,206.7 145.4,209.4 143.5,212.2 C142.6,213.5 141.8,214.9 140.9,216.2 C140.6,216.6 140.3,216.9 140,217.2 C139.4,217.7 139,217.8 138.4,217.3 C138,217 137.6,216.7 137.4,216.3 C135.6,213.8 133.3,211.9 131,210 C128.6,207.9 126,206 123.2,204.4 C122.8,204.2 122.3,203.8 121.9,203.6 C120.4,202.6 119.7,201.3 119.7,199.6 C119.7,198.7 119.7,197.8 119.8,196.8 C120,193.5 119.7,190.3 119.4,187 C119,182.5 118.2,178.1 116.7,173.9 C115.1,169 112.6,164.6 109.2,160.7 C108.6,160 108,159.2 107.4,158.5 C107.4,158.4 107.3,158.4 107.2,158.2 C109.3,158.2 111.4,158.6 113.3,159.2 C118.7,160.7 124.2,162.3 129.4,164.4 C138.6,168.2 147,173.3 154.7,179.7 C156.1,180.7 157.5,181.8 158.9,183 Z" id="Path" fill="#D66986"></path>
                    <path d="M135.8,218.8 C136.8,220.2 136.7,221.5 135.6,222.9 C133.6,225.5 131.5,228 129.5,230.5 C128.5,231.8 127.4,233 126.3,234.2 C125.1,235.4 123.7,236.1 121.9,236 C118.9,235.7 116.9,233 117.3,229.8 C117.9,225.5 118.5,221.3 119,217 C119.3,214.8 119.3,212.6 119.4,210.4 C119.5,209 119.8,207.7 119.9,206.3 C120,206.3 120.1,206.2 120.1,206.2 C121.3,207 122.5,207.7 123.7,208.5 C127.6,211 131.2,213.8 134.3,217.1 C134.9,217.6 135.4,218.2 135.8,218.8 Z" id="Path" fill="#D66986"></path>
                    <path d="M128.8,13.3 C130.2,14.4 130.3,15.3 129.1,16.6 C128.6,17.1 128.1,17.6 127.6,17.9 C122.2,21.2 116.8,24.6 110.7,26.7 C105.4,28.5 100,29.8 94.4,30.1 C92.4,30.2 92.3,30.1 92.3,28.1 C92.3,24.5 92.3,20.9 92.3,17.4 C92.3,17.4 92.4,17.4 92.4,17.4 C92.4,14.1 92.4,10.7 92.4,7.4 C92.4,6.6 92.4,5.9 92.5,5.1 C92.6,4.2 93,3.9 94,3.9 C99,4.2 104.1,4.6 109,5.6 C112.4,6.3 115.7,7.5 119,8.8 C121.5,9.8 123.9,10.7 126.4,11.7 C127.2,12.2 128,12.7 128.8,13.3 Z" id="Path" fill="#D66986"></path>
                    <path d="M100.2,103 C102.5,106.6 102.9,110.5 100.8,114.3 C98.5,118.4 94.9,120.4 91.7,120.5 C84.5,120.5 79.6,116.5 78.7,111 C78,107.1 79.4,103.8 82,101 C83.7,99.2 85.8,97.8 88.3,97.4 C93.4,96.6 97.5,98.6 100.2,103 Z" id="Path" fill="#ECECE0"></path>
                    <path d="M85.7,122.9 C88,123.5 88.4,124.2 88.4,126.6 C88.3,133.3 88.3,140 88.3,146.8 C88.3,148.3 88.3,149.7 88.3,151.2 C88.3,152.8 87.9,153.2 86.4,153.3 C83.2,153.6 80.1,153.8 77,154.2 C70.7,155 64.5,156.4 58.5,158.3 C45.1,162.6 33,169.3 22.2,178.4 C21.5,179 21,179.6 20.3,180.2 C19.2,181.1 18.4,181 17.8,179.7 C17.7,179.4 17.5,179.2 17.4,178.9 C15.4,173.5 13.3,168.2 11.4,162.8 C10.3,159.7 9.5,156.4 8.6,153.2 C8.3,152.2 8.3,151.2 8.3,150.2 C8.2,149 8.7,147.9 9.7,147.2 C11.8,145.7 13.9,144.2 16.1,142.9 C30.7,134.3 46.2,127.7 62.8,124.2 C67.5,123.2 72.1,122.3 76.9,122.1 C77.3,122.1 77.7,122.1 78.1,122.1 C80.6,122.1 83.2,122.2 85.7,122.9 Z" id="Path" fill="#D66986"></path>
                    <path d="M88.4,84.7 C88.4,87.3 88.4,89.8 88.4,92.4 C88.4,93.8 88.3,93.9 87,94.3 C82.6,95.8 79.1,98.3 77.1,102.6 C76.7,103.5 76.2,104.3 75.7,105.1 C75.4,105.7 74.9,105.9 74.3,106 C72.9,106.2 71.6,106 70.3,105.7 C65.8,104.8 61.2,103.9 56.7,102.9 C45.7,100.3 35.3,96.1 25.5,90.6 C21,88.1 16.7,85.3 12.3,82.7 C11.1,82 9.9,81.2 8.7,80.4 C7.2,79.4 6.7,77.9 7.1,76.1 C8.6,67.7 11.2,59.6 14.9,51.9 C15.4,50.8 15.9,49.7 16.4,48.7 C16.7,48.2 17,47.7 17.4,47.3 C18,46.6 18.5,46.7 19.1,47.3 C22.7,50.5 26.3,53.5 30.2,56.3 C41.8,64.5 54.5,69.9 68.3,72.9 C73.6,74 78.9,74.7 84.3,75 C85.1,75 85.9,75 86.7,75.1 C87.8,75.2 88.3,75.7 88.3,76.8 C88.4,79.4 88.4,82 88.4,84.7 Z" id="Path" fill="#D66986"></path>
                    <path d="M88.4,35.4 C88.4,43.5 88.4,51.6 88.4,59.7 C88.4,62.8 88.4,65.9 88.4,69 C88.4,69.8 88.3,70.6 88.3,71.4 C85.6,71.8 82.9,71.9 80.2,71.6 C61.2,69.6 44.1,62.6 28.8,51.1 C26.7,49.5 24.6,47.9 22.5,46.2 C21.7,45.6 21.1,44.7 20.5,44 C20.1,43.5 20.1,43 20.5,42.4 C23.9,37.2 27.8,32.3 32.3,27.9 C35.7,24.6 39.4,21.6 43.2,18.6 C43.9,18 44.8,17.6 45.6,17.2 C46.4,16.8 47.2,16.9 47.9,17.3 C48.3,17.6 48.8,17.9 49.2,18.2 C52.6,21.4 56.6,24 60.7,26.2 C66.6,29.3 72.8,31.4 79.3,32.6 C80.6,32.8 82,32.8 83.3,32.9 C84.5,33 85.8,33.2 87,33.5 C88.2,33.7 88.4,34.1 88.4,35.4 Z" id="Path" fill="#D66986"></path>
                    <path d="M88.4,17.3 C88.4,21.1 88.4,24.9 88.4,28.7 C88.4,29.8 88.1,30.1 87,30.1 C83.4,30 79.8,29.4 76.2,28.6 C69.5,27 63.2,24.3 57.4,20.5 C56.1,19.7 54.7,19 53.4,18.2 C52.7,17.7 52,17.2 51.4,16.5 C50.3,15.3 50.3,14.3 51.7,13.4 C52.9,12.6 54.2,11.8 55.5,11.3 C60.4,9.4 65.1,7.4 70.2,6.1 C73.8,5.2 77.5,4.7 81.2,4.4 C83.1,4.2 84.9,4.1 86.8,4 C87.6,3.9 88,4.2 88.1,5 C88.2,5.6 88.2,6.2 88.2,6.8 C88.3,10.3 88.3,13.8 88.4,17.3 C88.3,17.3 88.4,17.3 88.4,17.3 Z" id="Path" fill="#D66986"></path>
                    <path d="M77.4,116.9 C77.6,117.3 77.9,117.9 77.8,118.2 C77.6,118.5 77,118.7 76.5,118.8 C74.5,119.1 72.5,119.3 70.5,119.5 C62.6,120.6 54.9,122.5 47.3,124.9 C34.5,129.1 22.5,134.9 11.4,142.3 C10.5,142.9 9.7,143.5 8.9,144.1 C7.8,144.8 7.1,144.6 6.9,143.3 C6.5,140.9 6.1,138.6 5.8,136.2 C5.4,132.7 5,129.2 4.6,125.7 C4.6,125.7 4.7,125.7 4.7,125.7 C4.7,125.2 4.7,124.7 4.7,124.2 C4.7,123.3 5,122.7 5.7,122.3 C8.3,120.9 10.8,119.4 13.4,118.2 C15.8,117.1 18.3,116.2 20.8,115.2 C21.1,115.1 21.4,114.8 21.7,114.6 C21.4,114.3 21.1,114 20.8,113.8 C17.8,112.4 14.8,111.1 11.8,109.7 C9.9,108.8 8,107.6 6.1,106.6 C5,106 4.4,105 4.5,103.8 C4.6,101.7 4.6,99.7 4.8,97.6 C5.1,93.5 5.6,89.4 6,85.3 C6,85 6.1,84.6 6.2,84.3 C6.5,83.4 6.9,83.1 7.8,83.5 C9.1,84.2 10.4,84.8 11.5,85.7 C21.3,93.2 32.3,98.2 43.8,102.3 C51.7,105.2 59.9,107.2 68.3,108.6 C69.8,108.9 71.4,108.9 72.9,109.1 C73.6,109.2 74.2,109.4 74.9,109.6 C75.1,109.7 75.3,110 75.4,110.2 C75.7,111.6 76,113 76.4,114.4 C76.4,115.2 77,116 77.4,116.9 Z" id="Path" fill="#D66986"></path>
                    <path d="M73.3,158 C73.3,158 73.4,158.1 73.4,158.1 C72.9,158.8 72.4,159.5 71.8,160.1 C66.4,166 63.5,173.1 62.1,180.9 C61.3,185.4 60.9,190 60.8,194.6 C60.8,195.8 60.9,197 61,198.2 C61.2,200.8 60.3,202.7 57.9,204 C55.4,205.4 53,207 50.9,208.9 C48.9,210.6 46.8,212.4 44.9,214.3 C44.2,214.9 43.7,215.7 43.1,216.4 C41.7,218 41,218 39.8,216.3 C37.1,212.5 34.5,208.6 32,204.7 C29.2,200.3 26.6,195.8 23.9,191.4 C23,190 22.2,188.5 21.3,187.1 C21.1,186.8 21,186.3 20.8,186 C20.5,185.1 20.6,184.3 21.3,183.7 C22.2,182.9 23,182 24,181.3 C27.4,178.7 30.7,176 34.2,173.6 C43.2,167.5 53,163.1 63.5,160.3 C66.1,159.6 68.7,159 71.3,158.4 C72,158.1 72.6,158.1 73.3,158 Z" id="Path" fill="#D66986"></path>
                    <path d="M63.2,228.7 C63.4,229.8 63.5,230.9 63.3,232 C62.9,234.7 59.3,237.2 56,235.4 C54.6,234.7 53.6,233.6 52.6,232.4 C50.1,229.3 47.6,226.2 45.1,223 C43.9,221.5 43.7,220.1 45,218.6 C46.5,216.8 48.2,215.1 50,213.5 C53,210.8 56.4,208.7 59.8,206.5 C60,206.4 60.2,206.3 60.6,206.1 C60.8,208 61.1,209.7 61.2,211.4 C61.5,217.2 62.3,223 63.2,228.7 Z" id="Path" fill="#D66986"></path>
                    <path d="M12.9,113.8 C13.4,114.1 13.5,114.3 12.9,114.6 C12,115.1 11,115.6 10,116.1 C9,116.6 8,117.1 6.9,117.5 C6.4,117.7 5.8,117.9 5.2,118.1 C4.6,118.2 4.3,118 4.3,117.4 C4.2,116.2 4.1,115.1 4,113.9 C4.1,113.1 4.1,112.3 4.2,111.5 C4.4,110.3 5.2,109.9 6.3,110.4 C7.1,110.7 7.8,111.2 8.5,111.6 C10.1,112.3 11.5,113 12.9,113.8 Z" id="Path" fill="#D66986"></path>
                </g>
            </g>
        </g>
    </g>
</svg>